<svg width="293" height="339" viewBox="0 0 293 339" fill="none" xmlns="http://www.w3.org/2000/svg">
<path d="M79.484 171.786C79.0044 171.786 78.6619 171.443 78.6619 170.964C77.9769 155.206 79.1414 133.077 88.3894 117.045C94.0066 107.317 99.8979 104.508 100.103 104.371C100.172 104.371 100.172 104.371 100.24 104.302C110.31 101.356 115.448 96.2178 117.983 92.4497C120.723 88.4076 121.065 84.982 121.065 84.9135C121.134 84.5024 121.408 84.2284 121.75 84.1599C121.887 84.1599 135.109 81.6935 157.509 68.2652C157.715 68.1282 158.057 68.1282 158.263 68.1967C158.537 68.3338 158.674 68.5393 158.742 68.8133C158.742 68.8818 159.222 70.8687 161.893 72.3759C164.907 74.0887 171.004 75.4589 183.266 71.8278C183.335 71.8278 183.403 71.8278 183.403 71.8278C183.677 71.8278 189.637 71.3483 197.241 76.4181C209.709 84.708 216.764 101.356 220.464 113.894C220.601 114.373 220.327 114.853 219.915 114.99C219.436 115.127 218.956 114.853 218.819 114.442C206.763 73.4721 185.116 73.5406 183.677 73.6091C173.333 76.6236 165.729 76.7606 161.003 73.8832C159.016 72.7185 158.057 71.2797 157.578 70.3206C137.849 82.036 125.518 85.1875 122.709 85.8041C122.161 88.7501 118.942 100.603 100.788 105.946C100.24 106.22 94.8287 109.166 89.7594 118.073C80.7855 133.762 79.6895 155.412 80.306 170.895C80.306 171.375 79.9635 171.786 79.484 171.786Z" fill="black"/>
<path d="M192.72 135.201C192.514 135.201 192.309 135.132 192.172 134.995C184.773 128.487 181.554 118.142 181.416 117.73C181.279 117.251 181.553 116.771 181.965 116.634C182.444 116.497 182.924 116.771 183.061 117.182C183.061 117.251 186.28 127.528 193.336 133.694C193.679 134.036 193.747 134.516 193.405 134.927C193.199 135.132 192.925 135.201 192.72 135.201Z" fill="black"/>
<path d="M99.6923 287.775C99.2127 287.775 98.8702 287.433 98.8702 286.953C97.0892 255.301 103.254 204.603 103.323 204.123V204.055C107.365 187.475 103.323 154.452 103.323 154.11C103.254 153.63 103.597 153.219 104.076 153.151C104.556 153.082 104.967 153.425 105.036 153.904C105.173 155.275 109.077 187.543 105.036 204.397C104.83 206.247 98.8017 255.781 100.583 286.885C100.583 287.364 100.172 287.775 99.6923 287.775Z" fill="black"/>
<path d="M166.483 333.472C166.346 333.472 166.209 333.404 166.072 333.335C165.661 333.13 165.524 332.582 165.73 332.171C184.911 298.395 191.555 272.429 193.474 262.837C196.077 249.957 194.296 236.186 188.404 224.06C184.089 215.222 181.348 207.343 181.348 207.206C172.237 176.239 184.979 126.157 185.116 125.609C185.253 125.13 185.733 124.856 186.144 124.993C186.623 125.13 186.897 125.609 186.76 126.02C186.623 126.5 174.019 176.17 182.924 206.658C182.924 206.727 185.664 214.537 189.911 223.238C195.94 235.707 197.789 249.82 195.118 263.111C193.131 272.771 186.486 298.943 167.168 332.993C167.1 333.335 166.826 333.472 166.483 333.472Z" fill="black"/>
<path d="M126.066 317.304H125.998C125.518 317.235 125.176 316.824 125.244 316.345C130.245 270.648 142.507 227.828 142.644 227.417C142.781 226.937 143.26 226.732 143.671 226.8C144.151 226.937 144.356 227.417 144.288 227.828C144.151 228.239 131.889 270.922 126.957 316.482C126.82 316.961 126.477 317.304 126.066 317.304Z" fill="black"/>
<path d="M137.369 251.876C137.164 251.876 136.958 251.807 136.821 251.67C136.547 251.464 129.834 245.778 125.244 236.118C125.039 235.707 125.244 235.159 125.655 234.953C126.066 234.748 126.614 234.953 126.82 235.364C131.272 244.682 137.849 250.3 137.917 250.368C138.26 250.642 138.328 251.19 138.054 251.602C137.849 251.807 137.643 251.876 137.369 251.876Z" fill="black"/>
<path d="M167.743 332.263C169.005 328.777 160.456 322.482 148.646 318.203C136.837 313.925 126.239 313.282 124.976 316.769C123.714 320.255 132.263 326.55 144.073 330.828C155.883 335.107 166.48 335.749 167.743 332.263Z" fill="black"/>
<path d="M129.79 292.012C130.292 289.103 123.748 285.546 115.173 284.065C106.598 282.585 99.2404 283.743 98.7385 286.651C98.2365 289.559 104.781 293.117 113.355 294.597C121.93 296.077 129.288 294.92 129.79 292.012Z" fill="black"/>
<path d="M210.15 129.35C217.836 123.517 222.175 116.297 219.842 113.222C217.509 110.148 209.388 112.384 201.703 118.216C194.018 124.049 189.679 131.27 192.011 134.344C194.344 137.418 202.465 135.182 210.15 129.35Z" fill="black"/>
<path d="M105.718 175.673C106.278 172.776 100.71 169.261 93.2815 167.823C85.8526 166.385 79.3757 167.569 78.815 170.466C78.2543 173.364 83.8222 176.879 91.2511 178.316C98.68 179.754 105.157 178.571 105.718 175.673Z" fill="black"/>
<path d="M117.572 136.297C93.6644 136.297 74.2095 116.84 74.2095 92.861C74.2095 68.882 93.6644 49.4248 117.572 49.4248C141.48 49.4248 160.934 68.882 160.934 92.861C160.934 116.84 141.548 136.297 117.572 136.297ZM117.572 50.3155C94.0754 50.3155 74.963 69.4301 74.963 92.861C74.963 116.292 94.0754 135.407 117.572 135.407C141.069 135.407 160.181 116.292 160.181 92.861C160.181 69.4301 141.069 50.3155 117.572 50.3155Z" fill="black"/>
<path d="M229.027 287.364H146.343C146.206 287.364 146.069 287.296 146.001 287.159C145.932 287.022 145.932 286.885 146.001 286.748L228.684 145.135C228.753 144.998 228.958 144.929 229.164 144.929C229.369 144.998 229.438 145.135 229.438 145.341V286.953C229.438 287.159 229.232 287.364 229.027 287.364ZM147.097 286.542H228.616V146.848L147.097 286.542Z" fill="black"/>
<path d="M52.973 283.254C52.9045 283.254 52.836 283.254 52.699 283.185C52.562 283.117 52.562 282.98 52.562 282.843V134.379C52.562 134.173 52.699 134.036 52.836 133.968L248.755 70.3892C248.892 70.3207 249.029 70.3892 249.098 70.4577C249.235 70.5262 249.235 70.6633 249.235 70.8003V219.264C249.235 219.47 249.098 219.607 248.961 219.675L53.0415 283.254C53.0415 283.254 53.0415 283.254 52.973 283.254ZM53.384 134.653V282.226L248.481 218.922V71.4169L53.384 134.653Z" fill="black"/>
<path d="M0.499886 256.397C0.431383 256.397 0.36288 256.397 0.225874 256.329C0.0888677 256.26 0.0888672 256.123 0.0888672 255.986V214.194C0.0888672 213.989 0.225874 213.852 0.362881 213.783L70.5101 190.352C70.6471 190.284 70.7841 190.352 70.8526 190.421C70.9896 190.489 70.9896 190.627 70.9896 190.764V232.555C70.9896 232.761 70.8526 232.898 70.7156 232.967L0.636893 256.397C0.636893 256.397 0.568389 256.397 0.499886 256.397ZM0.910905 214.468V255.37L70.2361 232.213V191.312L0.910905 214.468Z" fill="black"/>
<path d="M22.6262 78.268H5.02088C4.81537 78.268 4.60986 78.0625 4.60986 77.8569V60.2496C4.60986 60.044 4.81537 59.8385 5.02088 59.8385H22.6262C22.8317 59.8385 23.0372 60.044 23.0372 60.2496V77.8569C23.0372 78.0625 22.8317 78.268 22.6262 78.268ZM5.4319 77.4459H22.2152V60.6606H5.4319V77.4459Z" fill="black"/>
<path d="M258.62 41.6144V0.85022C247.522 6.26261 236.493 14.5525 226.766 25.2402C217.312 35.7225 210.325 47.1639 205.941 58.4682L258.62 41.6144Z" fill="black"/>
<path d="M137.369 214.263C137.095 214.194 136.958 214.057 136.958 213.852V170.895C136.958 170.827 136.958 170.758 136.958 170.758C137.027 170.621 142.027 159.043 152.988 154.932C159.77 152.397 167.305 153.219 175.525 157.33C186.691 162.948 200.323 160.002 207.859 150.479C208.407 149.794 208.955 149.04 209.503 148.286C213.476 142.6 219.093 138.626 225.327 137.188C231.766 135.68 238.754 136.365 246.084 139.243C246.084 139.243 246.152 139.243 246.152 139.311C246.221 139.311 249.783 141.641 254.989 141.846C261.839 142.12 268.416 138.489 273.896 131.433C274.101 131.159 279.376 124.787 285.541 124.376C288.144 124.239 290.474 125.13 292.529 127.048C292.597 127.116 292.666 127.253 292.666 127.322V170.005C292.666 170.142 292.597 170.279 292.529 170.347C292.46 170.416 292.323 170.484 292.186 170.416C291.981 170.347 286.569 169.388 282.185 177.883C280.815 180.487 278.828 182.474 276.362 183.775C272.594 185.694 266.703 186.79 259.99 181.514C259.373 181.035 258.757 180.487 258.277 180.007C256.565 178.363 247.18 170.347 234.232 175.006C234.095 175.074 223.546 178.157 214.641 195.354C213.065 198.368 211.284 200.561 209.16 202.068C204.365 205.493 195.802 207.823 182.376 199.738C174.292 194.806 164.702 193.504 156.002 196.039C147.028 198.711 140.931 204.74 137.78 214.126C137.712 214.126 137.575 214.263 137.369 214.263ZM137.78 171.032V211.591C141.205 203.233 147.233 197.683 155.728 195.148C164.565 192.545 174.429 193.915 182.718 198.916C195.734 206.795 204.023 204.603 208.612 201.314C210.599 199.944 212.311 197.82 213.819 194.874C218.545 185.762 223.751 180.624 227.245 177.883C231.081 174.937 233.753 174.184 233.89 174.115C247.317 169.319 256.976 177.609 258.757 179.322C259.236 179.802 259.784 180.281 260.401 180.761C266.771 185.831 272.32 184.734 275.882 182.953C278.211 181.788 280.13 179.87 281.363 177.404C285.336 169.73 290.2 169.319 291.775 169.456V127.391C289.926 125.678 287.802 124.856 285.541 125.061C279.719 125.472 274.512 131.775 274.512 131.844C267.319 141.024 259.853 142.737 254.852 142.6C249.646 142.394 246.084 140.202 245.672 139.928C238.548 137.119 231.766 136.434 225.464 137.941C219.436 139.38 213.956 143.217 210.119 148.698C209.571 149.451 209.023 150.205 208.475 150.89C200.666 160.756 186.691 163.701 175.114 157.947C167.168 153.973 159.77 153.151 153.262 155.617C143.123 159.522 138.26 170.005 137.78 171.032Z" fill="black"/>
<path d="M261.702 322.031C255.948 322.031 251.221 317.372 251.221 311.549C251.221 305.725 255.879 301.067 261.702 301.067C267.525 301.067 272.183 305.725 272.183 311.549C272.183 317.372 267.456 322.031 261.702 322.031ZM261.702 301.957C256.359 301.957 252.043 306.274 252.043 311.617C252.043 316.961 256.359 321.277 261.702 321.277C267.045 321.277 271.361 316.961 271.361 311.617C271.293 306.274 266.977 301.957 261.702 301.957Z" fill="black"/>
<path d="M44.7531 314.769C44.616 314.769 44.5475 314.7 44.479 314.632L26.1887 296.339C26.0517 296.202 26.0517 295.928 26.1887 295.791C26.3257 295.654 26.5997 295.654 26.7367 295.791L45.0271 314.084C45.1641 314.221 45.1641 314.495 45.0271 314.632C44.9586 314.7 44.8901 314.769 44.7531 314.769Z" fill="black"/>
<path d="M26.4627 314.769C26.3257 314.769 26.2572 314.7 26.1887 314.632C26.0517 314.495 26.0517 314.221 26.1887 314.084L44.479 295.791C44.616 295.654 44.8901 295.654 45.0271 295.791C45.1641 295.928 45.1641 296.202 45.0271 296.339L26.7367 314.632C26.6682 314.7 26.5997 314.769 26.4627 314.769Z" fill="black"/>
<path d="M52.9729 196.655V237.694L0.499512 255.986V214.194L52.9729 196.655Z" fill="black"/>
<path d="M180.115 159.522C178.471 159.043 176.895 158.426 175.388 157.673C148.604 144.313 137.369 170.895 137.369 170.895V213.852C141.068 202.822 148.467 197.683 155.865 195.559C164.017 193.161 172.717 194.189 180.252 198.026C177.306 182.953 180.115 159.522 180.115 159.522Z" fill="black"/>
<path d="M87.2251 123.006C95.0345 130.816 105.721 135.612 117.64 135.612C139.082 135.612 156.824 119.923 160.112 99.3694L87.2251 123.006Z" fill="black"/>
<path d="M194.021 237.077L171.141 244.476L146.343 286.953H187.651C187.719 286.953 199.57 262.015 194.021 237.077Z" fill="black"/>
</svg>
