<svg width="168" height="43" viewBox="0 0 168 43" fill="none" xmlns="http://www.w3.org/2000/svg">
<path d="M8.41955 42.0002L25.9908 17.8397H17.5712L0 42.0002H8.41955Z" fill="white"/>
<path d="M50.5172 42.0002L33.312 17.8397H41.7315L58.9367 42.0002H50.5172Z" fill="white"/>
<path d="M15.375 41.9999L21.5981 33.2142L27.8213 41.9999H15.375Z" fill="white"/>
<path d="M21.2314 12.3481L29.651 1L37.7045 12.3481H21.2314Z" fill="white"/>
<path d="M29.286 22.2319L25.2593 28.4551L35.1431 41.9996H43.5626L29.286 22.2319Z" fill="white"/>
<path d="M88.9351 10.4702H85.9644L85.4946 12H82.9492L86.3198 2.75781H87.9321H88.5669L91.9565 12H89.4048L88.9351 10.4702ZM88.3447 8.55322L87.4434 5.6333L86.5483 8.55322H88.3447ZM101.147 11.8984V12H98.6079L97.0527 8.87695H95.9546V12H93.5869V2.75781H97.3129C98.0324 2.75781 98.6565 2.86572 99.1855 3.08154C99.7145 3.29313 100.123 3.6084 100.411 4.02734C100.703 4.44629 100.849 4.9541 100.849 5.55078C100.849 6.26172 100.713 6.82243 100.442 7.23291C100.176 7.63916 99.7822 7.97135 99.2617 8.22949L101.147 11.8984ZM95.9546 6.95361H97.3129C97.698 6.95361 97.9879 6.8584 98.1826 6.66797C98.3815 6.47331 98.4809 6.18978 98.4809 5.81738C98.4809 5.45345 98.3794 5.17204 98.1762 4.97314C97.9731 4.77425 97.6853 4.6748 97.3129 4.6748H95.9546V6.95361ZM110.471 4.6748H107.716V12H105.342V4.6748H102.657V2.75781H107.716H110.471V4.6748ZM93.7339 27H91.3599V25.2544L91.5884 20.5571L89.4619 27H87.9131L85.7866 20.5571L86.0215 25.2544V27H83.6475V17.7578H85.647H86.7642L88.6875 23.8896L90.6108 17.7578H93.7339V27ZM101.375 25.4702H98.4047L97.935 27H95.3896L98.7602 17.7578H100.373H101.007L104.397 27H101.845L101.375 25.4702ZM100.785 23.5532L99.8837 20.6333L98.9887 23.5532H100.785ZM113.587 26.8984V27H111.048L109.493 23.877H108.395V27H106.027V17.7578H109.753C110.473 17.7578 111.097 17.8657 111.626 18.0815C112.155 18.2931 112.563 18.6084 112.851 19.0273C113.143 19.4463 113.289 19.9541 113.289 20.5508C113.289 21.2617 113.154 21.8224 112.883 22.2329C112.616 22.6392 112.223 22.9714 111.702 23.2295L113.587 26.8984ZM108.395 21.9536H109.753C110.138 21.9536 110.428 21.8584 110.623 21.668C110.822 21.4733 110.921 21.1898 110.921 20.8174C110.921 20.4535 110.82 20.172 110.617 19.9731C110.413 19.7743 110.126 19.6748 109.753 19.6748H108.395V21.9536ZM120.48 21.8647L123.482 27H120.677L118.887 23.75L118.004 24.7212V27H115.637V17.7578H118.004V21.7124L118.753 20.5063L120.588 17.7578H123.52L120.48 21.8647ZM127.385 19.6748V21.3442H130.819V23.1851H127.385V25.0894H131.454V27H126.515H125.017V17.7578H127.385H131.479V19.6748H127.385ZM140.835 19.6748H138.08V27H135.706V19.6748H133.021V17.7578H138.08H140.835V19.6748ZM142.928 27V17.7578H145.283V27H142.928ZM153.242 27L150.157 21.6235V27H147.79V17.7578H150.157L153.236 23.1279V17.7578H155.597V27H153.242ZM165.619 25.8828C165.433 26.0817 165.169 26.2764 164.826 26.4668C164.483 26.653 164.06 26.8096 163.556 26.9365C163.057 27.0635 162.498 27.127 161.881 27.127C161.047 27.127 160.323 26.9535 159.71 26.6064C159.096 26.2552 158.622 25.741 158.288 25.064C157.953 24.3869 157.786 23.5723 157.786 22.6201V22.144C157.786 21.2004 157.956 20.3879 158.294 19.7065C158.637 19.0252 159.109 18.509 159.71 18.1577C160.311 17.8022 160.994 17.6245 161.76 17.6245C163.008 17.6245 163.937 17.9102 164.547 18.4814C165.16 19.0527 165.514 19.8462 165.607 20.8618H163.341C163.277 20.4006 163.131 20.0641 162.903 19.8525C162.678 19.641 162.327 19.5352 161.849 19.5352C161.341 19.5352 160.937 19.751 160.636 20.1826C160.34 20.6143 160.192 21.2638 160.192 22.1313V22.6201C160.192 23.5088 160.338 24.1647 160.63 24.5879C160.926 25.0068 161.404 25.2163 162.065 25.2163C162.348 25.2163 162.589 25.1867 162.788 25.1274C162.991 25.064 163.144 24.9899 163.245 24.9053V23.6484H161.779V21.9727H165.619V25.8828Z" fill="white"/>
<path d="M86.7959 37.8677C85.8184 37.5841 85.0757 37.2308 84.5679 36.8076C84.0601 36.3802 83.8062 35.8258 83.8062 35.1445C83.8062 34.6663 83.9352 34.2368 84.1934 33.856C84.4557 33.4751 84.8239 33.1768 85.2979 32.9609C85.776 32.7409 86.3241 32.6309 86.9419 32.6309C87.6147 32.6309 88.1966 32.7599 88.6875 33.0181C89.1826 33.2762 89.5592 33.619 89.8174 34.0464C90.0798 34.4738 90.2109 34.9329 90.2109 35.4238H88.9731C88.9731 34.8822 88.8018 34.4484 88.459 34.1226C88.1162 33.7925 87.6105 33.6274 86.9419 33.6274C86.3198 33.6274 85.848 33.765 85.5264 34.04C85.2048 34.3151 85.0439 34.6769 85.0439 35.1255C85.0439 35.3879 85.118 35.6185 85.2661 35.8174C85.4142 36.0163 85.6449 36.1961 85.958 36.3569C86.2712 36.5177 86.6838 36.6701 87.1958 36.814C87.9067 37.0129 88.4823 37.2414 88.9224 37.4995C89.3667 37.7576 89.6947 38.0623 89.9062 38.4136C90.1221 38.7606 90.23 39.1732 90.23 39.6514C90.23 40.1465 90.0967 40.5824 89.8301 40.959C89.5677 41.3314 89.1932 41.6191 88.7065 41.8223C88.2199 42.0254 87.6528 42.127 87.0054 42.127C86.4172 42.127 85.8543 42.019 85.3169 41.8032C84.7837 41.5832 84.3499 41.2616 84.0156 40.8384C83.6813 40.4152 83.5142 39.9095 83.5142 39.3213H84.7456C84.7456 39.7275 84.8472 40.0661 85.0503 40.3369C85.2576 40.6077 85.5306 40.8088 85.8691 40.9399C86.2119 41.0711 86.5907 41.1367 87.0054 41.1367C87.6359 41.1367 88.1247 41.0055 88.4717 40.7432C88.8187 40.4808 88.9922 40.1211 88.9922 39.6641C88.9922 39.3636 88.9287 39.1139 88.8018 38.915C88.679 38.7119 88.4611 38.5299 88.1479 38.3691C87.8348 38.2041 87.3841 38.0369 86.7959 37.8677ZM99.6362 39.0674C99.5685 39.6683 99.3971 40.1994 99.122 40.6606C98.847 41.1177 98.4576 41.4774 97.9541 41.7397C97.4547 41.9979 96.8453 42.127 96.1259 42.127C95.4108 42.127 94.7802 41.9513 94.2343 41.6001C93.6884 41.2446 93.2653 40.7432 92.9648 40.0957C92.6643 39.4482 92.5141 38.6992 92.5141 37.8486V36.9155C92.5141 36.0607 92.6643 35.3096 92.9648 34.6621C93.2695 34.0146 93.7032 33.5153 94.2661 33.1641C94.8289 32.8086 95.4869 32.6309 96.2402 32.6309C96.9215 32.6309 97.5055 32.7599 97.9921 33.0181C98.4788 33.272 98.8575 33.6317 99.1284 34.0972C99.4034 34.5584 99.5727 35.1001 99.6362 35.7222H98.4047C98.3074 35.0324 98.0916 34.5119 97.7573 34.1606C97.423 33.8052 96.9173 33.6274 96.2402 33.6274C95.7028 33.6274 95.2478 33.7629 94.8754 34.0337C94.5031 34.3045 94.2216 34.6854 94.0312 35.1763C93.845 35.6672 93.7519 36.2427 93.7519 36.9028V37.8486C93.7519 38.4749 93.8387 39.0356 94.0122 39.5308C94.1857 40.0259 94.4502 40.4173 94.8056 40.7051C95.1611 40.9928 95.6012 41.1367 96.1259 41.1367C96.6295 41.1367 97.0358 41.0584 97.3447 40.9019C97.6578 40.741 97.8927 40.5104 98.0493 40.21C98.2101 39.9095 98.3286 39.5286 98.4047 39.0674H99.6362ZM109.449 32.7578V42H108.217V37.7217H103.571V42H102.339V32.7578H103.571V36.7314H108.217V32.7578H109.449ZM119.775 37.6772C119.775 38.5913 119.623 39.3826 119.318 40.0513C119.018 40.7199 118.588 41.234 118.03 41.5938C117.471 41.9492 116.817 42.127 116.068 42.127C115.34 42.127 114.693 41.9471 114.126 41.5874C113.563 41.2277 113.123 40.7135 112.806 40.0449C112.492 39.3721 112.336 38.5828 112.336 37.6772V37.0869C112.336 36.1813 112.492 35.3921 112.806 34.7192C113.119 34.0464 113.557 33.5301 114.12 33.1704C114.682 32.8107 115.328 32.6309 116.056 32.6309C116.805 32.6309 117.458 32.8107 118.017 33.1704C118.58 33.5301 119.014 34.0464 119.318 34.7192C119.623 35.3879 119.775 36.1771 119.775 37.0869V37.6772ZM118.557 37.0742C118.557 36.3464 118.457 35.7285 118.258 35.2207C118.064 34.7087 117.778 34.3215 117.401 34.0591C117.029 33.7967 116.58 33.6655 116.056 33.6655C115.552 33.6655 115.112 33.7988 114.735 34.0654C114.359 34.3278 114.069 34.715 113.866 35.2271C113.662 35.7349 113.561 36.3506 113.561 37.0742V37.6772C113.561 38.4051 113.662 39.0251 113.866 39.5371C114.073 40.0492 114.365 40.4385 114.742 40.7051C115.118 40.9674 115.56 41.0986 116.068 41.0986C116.864 41.0986 117.477 40.8045 117.909 40.2163C118.341 39.6281 118.557 38.7817 118.557 37.6772V37.0742ZM129.765 37.6772C129.765 38.5913 129.613 39.3826 129.308 40.0513C129.008 40.7199 128.578 41.234 128.02 41.5938C127.461 41.9492 126.807 42.127 126.058 42.127C125.331 42.127 124.683 41.9471 124.116 41.5874C123.553 41.2277 123.113 40.7135 122.796 40.0449C122.483 39.3721 122.326 38.5828 122.326 37.6772V37.0869C122.326 36.1813 122.483 35.3921 122.796 34.7192C123.109 34.0464 123.547 33.5301 124.11 33.1704C124.673 32.8107 125.318 32.6309 126.046 32.6309C126.795 32.6309 127.449 32.8107 128.007 33.1704C128.57 33.5301 129.004 34.0464 129.308 34.7192C129.613 35.3879 129.765 36.1771 129.765 37.0869V37.6772ZM128.547 37.0742C128.547 36.3464 128.447 35.7285 128.248 35.2207C128.054 34.7087 127.768 34.3215 127.391 34.0591C127.019 33.7967 126.57 33.6655 126.046 33.6655C125.542 33.6655 125.102 33.7988 124.725 34.0654C124.349 34.3278 124.059 34.715 123.856 35.2271C123.653 35.7349 123.551 36.3506 123.551 37.0742V37.6772C123.551 38.4051 123.653 39.0251 123.856 39.5371C124.063 40.0492 124.355 40.4385 124.732 40.7051C125.108 40.9674 125.551 41.0986 126.058 41.0986C126.854 41.0986 127.468 40.8045 127.899 40.2163C128.331 39.6281 128.547 38.7817 128.547 37.6772V37.0742ZM138.251 41.0098V42H133.63H132.64V32.7578H133.871V41.0098H138.251Z" fill="white"/>
</svg>
